<svg width="18" height="18" viewBox="0 0 18 18" fill="none" xmlns="http://www.w3.org/2000/svg">
<path d="M1.01404e-06 8.99794C0.000452413 7.02478 0.649335 5.10645 1.84679 3.53818C3.04424 1.96991 4.72389 0.838615 6.62724 0.318411C8.53059 -0.201792 10.5522 -0.0820768 12.3808 0.659132C14.2095 1.40034 15.7438 2.72196 16.7478 4.4206C17.7518 6.11924 18.1698 8.10075 17.9373 10.0602C17.7049 12.0196 16.835 13.8483 15.4614 15.2649C14.0879 16.6815 12.2869 17.6075 10.3356 17.9003C8.38429 18.1932 6.39082 17.8366 4.662 16.8855L1.1628 17.9511C1.00672 17.9987 0.840659 18.0029 0.682368 17.9633C0.524077 17.9238 0.379516 17.842 0.264147 17.7266C0.148777 17.6112 0.0669393 17.4667 0.0273874 17.3084C-0.0121644 17.1501 -0.0079428 16.984 0.0396009 16.8279L1.1052 13.3233C0.379376 11.9972 -0.000716523 10.5097 1.01404e-06 8.99794ZM5.4 8.09794C5.4 8.33663 5.49482 8.56555 5.6636 8.73433C5.83238 8.90312 6.0613 8.99794 6.3 8.99794H11.7C11.9387 8.99794 12.1676 8.90312 12.3364 8.73433C12.5052 8.56555 12.6 8.33663 12.6 8.09794C12.6 7.85924 12.5052 7.63032 12.3364 7.46154C12.1676 7.29276 11.9387 7.19794 11.7 7.19794H6.3C6.0613 7.19794 5.83238 7.29276 5.6636 7.46154C5.49482 7.63032 5.4 7.85924 5.4 8.09794ZM6.3 10.7979C6.0613 10.7979 5.83238 10.8928 5.6636 11.0615C5.49482 11.2303 5.4 11.4592 5.4 11.6979C5.4 11.9366 5.49482 12.1655 5.6636 12.3343C5.83238 12.5031 6.0613 12.5979 6.3 12.5979H9.89999C10.1387 12.5979 10.3676 12.5031 10.5364 12.3343C10.7052 12.1655 10.8 11.9366 10.8 11.6979C10.8 11.4592 10.7052 11.2303 10.5364 11.0615C10.3676 10.8928 10.1387 10.7979 9.89999 10.7979H6.3Z" fill="black"/>
</svg>
