<svg width="26" height="24" viewBox="0 0 26 24" fill="none" xmlns="http://www.w3.org/2000/svg">
<g clip-path="url(#clip0_29_565)">
<path d="M12.9432 0C10.1412 0 7.96326 1.10043e-07 6.26781 0.184622C4.55302 0.372936 3.19498 0.763103 2.11144 1.64436C0.998884 2.55024 0.478884 3.72813 0.233395 5.21372C-5.406e-08 6.63161 0 8.43598 0 10.6859V10.9111C0 13.1044 5.406e-08 14.622 0.241861 15.7532C0.372465 16.3624 0.578047 16.8917 0.90093 17.3815C1.22019 17.864 1.62651 18.2702 2.11144 18.664C2.87451 19.2856 3.77423 19.661 4.83721 19.8948V23.0777C4.83735 23.2394 4.87924 23.3983 4.95868 23.5384C5.03811 23.6784 5.15231 23.7948 5.28984 23.8758C5.42737 23.9568 5.58339 23.9997 5.7423 24C5.9012 24.0003 6.0574 23.9582 6.19526 23.8777C6.90391 23.4654 7.53153 23.0162 8.10595 22.5928L8.47358 22.3208C8.88263 22.0091 9.30042 21.7095 9.72642 21.4223C10.7471 20.7478 11.7218 20.3084 13 20.3084H13.0568C15.8588 20.3084 18.0367 20.3084 19.7322 20.1238C21.447 19.9355 22.805 19.5453 23.8886 18.664C24.3723 18.2702 24.7798 17.864 25.0979 17.3815C25.422 16.8917 25.6275 16.3624 25.7581 15.7532C26 14.622 26 13.1044 26 10.9111V10.6859C26 8.43598 26 6.63161 25.7666 5.21495C25.5211 3.72813 25.0011 2.55024 23.8886 1.64436C22.805 0.761872 21.447 0.372936 19.7322 0.185853C18.0367 3.6681e-08 15.8588 0 13.0568 0H12.9432ZM13 6.15406C13.2405 6.15406 13.4712 6.25131 13.6413 6.42443C13.8114 6.59755 13.907 6.83234 13.907 7.07717V9.23109H16.0233C16.2638 9.23109 16.4945 9.32834 16.6646 9.50146C16.8347 9.67457 16.9302 9.90937 16.9302 10.1542C16.9302 10.399 16.8347 10.6338 16.6646 10.8069C16.4945 10.98 16.2638 11.0773 16.0233 11.0773H13.907V13.2312C13.907 13.476 13.8114 13.7108 13.6413 13.884C13.4712 14.0571 13.2405 14.1543 13 14.1543C12.7595 14.1543 12.5288 14.0571 12.3587 13.884C12.1886 13.7108 12.093 13.476 12.093 13.2312V11.0773H9.97674C9.7362 11.0773 9.50551 10.98 9.33541 10.8069C9.16532 10.6338 9.06977 10.399 9.06977 10.1542C9.06977 9.90937 9.16532 9.67457 9.33541 9.50146C9.50551 9.32834 9.7362 9.23109 9.97674 9.23109H12.093V7.07717C12.093 6.83234 12.1886 6.59755 12.3587 6.42443C12.5288 6.25131 12.7595 6.15406 13 6.15406Z" fill="black"/>
</g>
<defs>
<clipPath id="clip0_29_565">
<rect width="26" height="24" fill="white"/>
</clipPath>
</defs>
</svg>
