<svg width="20" height="20" viewBox="0 0 20 20" fill="none" xmlns="http://www.w3.org/2000/svg">
<path d="M10.0588 1C7.11765 1 4.76471 3.35294 4.76471 6.29412V8.64706C3.76471 8.64706 3 9.41177 3 10.4118V18.0588C3 19.0588 3.76471 19.8235 4.76471 19.8235H15.3529C16.3529 19.8235 17.1176 19.0588 17.1176 18.0588V10.4118C17.1176 9.41177 16.3529 8.64706 15.3529 8.64706V6.29412C15.3529 3.35294 13 1 10.0588 1ZM15.9412 10.4118V18.0588C15.9412 18.4118 15.7059 18.6471 15.3529 18.6471H4.76471C4.41176 18.6471 4.17647 18.4118 4.17647 18.0588V10.4118C4.17647 10.0588 4.41176 9.82353 4.76471 9.82353H5.35294H14.7647H15.3529C15.7059 9.82353 15.9412 10.0588 15.9412 10.4118ZM5.94118 8.64706V6.29412C5.94118 4 7.76471 2.17647 10.0588 2.17647C12.3529 2.17647 14.1765 4 14.1765 6.29412V8.64706H5.94118Z" fill="#1C1C1C"/>
<path d="M10.0001 11.1763C9.00006 11.1763 8.23535 11.941 8.23535 12.941C8.23535 13.7057 8.70594 14.3527 9.41182 14.588V15.8822C9.41182 16.2351 9.64712 16.4704 10.0001 16.4704C10.353 16.4704 10.5883 16.2351 10.5883 15.8822V14.588C11.2942 14.3527 11.7648 13.7057 11.7648 12.941C11.7648 11.941 11.0001 11.1763 10.0001 11.1763ZM10.0001 13.5292C9.64712 13.5292 9.41182 13.2939 9.41182 12.941C9.41182 12.588 9.64712 12.3527 10.0001 12.3527C10.353 12.3527 10.5883 12.588 10.5883 12.941C10.5883 13.2939 10.353 13.5292 10.0001 13.5292Z" fill="#1C1C1C"/>
</svg>
