<svg width="18" height="20" viewBox="0 0 18 20" fill="none" xmlns="http://www.w3.org/2000/svg">
<path fill-rule="evenodd" clip-rule="evenodd" d="M0 5C0 3.67392 0.526784 2.40215 1.46447 1.46447C2.40215 0.526784 3.67392 0 5 0H10C10.2652 0 10.5196 0.105357 10.7071 0.292893C10.8946 0.48043 11 0.734784 11 1C11 1.26522 10.8946 1.51957 10.7071 1.70711C10.5196 1.89464 10.2652 2 10 2H5C4.20435 2 3.44129 2.31607 2.87868 2.87868C2.31607 3.44129 2 4.20435 2 5V15C2 15.7956 2.31607 16.5587 2.87868 17.1213C3.44129 17.6839 4.20435 18 5 18H10C10.2652 18 10.5196 18.1054 10.7071 18.2929C10.8946 18.4804 11 18.7348 11 19C11 19.2652 10.8946 19.5196 10.7071 19.7071C10.5196 19.8946 10.2652 20 10 20H5C3.67392 20 2.40215 19.4732 1.46447 18.5355C0.526784 17.5979 0 16.3261 0 15V5Z" fill="#FF0000"/>
<path fill-rule="evenodd" clip-rule="evenodd" d="M11.47 5.31605C11.5598 5.22014 11.6676 5.14286 11.7873 5.08864C11.907 5.03442 12.0362 5.00431 12.1675 5.00004C12.2988 4.99577 12.4297 5.01742 12.5526 5.06374C12.6755 5.11007 12.7882 5.18018 12.884 5.27005L17.684 9.77005C17.7839 9.86359 17.8636 9.97664 17.918 10.1022C17.9725 10.2278 18.0006 10.3632 18.0006 10.5C18.0006 10.6369 17.9725 10.7723 17.918 10.8979C17.8636 11.0235 17.7839 11.1365 17.684 11.23L12.884 15.73C12.7881 15.8199 12.6755 15.8899 12.5526 15.9362C12.4296 15.9825 12.2988 16.0042 12.1675 15.9999C12.0362 15.9956 11.907 15.9655 11.7873 15.9113C11.6677 15.8571 11.5598 15.7799 11.47 15.684C11.3802 15.5882 11.3101 15.4756 11.2638 15.3526C11.2175 15.2297 11.1959 15.0988 11.2002 14.9675C11.2044 14.8362 11.2345 14.707 11.2887 14.5874C11.3429 14.4677 11.4201 14.3599 11.516 14.27L14.471 11.5H5C4.73478 11.5 4.48043 11.3947 4.29289 11.2072C4.10536 11.0196 4 10.7653 4 10.5C4 10.2348 4.10536 9.98048 4.29289 9.79294C4.48043 9.6054 4.73478 9.50005 5 9.50005H14.471L11.516 6.73005C11.4201 6.64025 11.3428 6.53243 11.2886 6.41276C11.2344 6.29308 11.2043 6.16389 11.2 6.03258C11.1957 5.90126 11.2174 5.77039 11.2637 5.64745C11.31 5.5245 11.3801 5.41189 11.47 5.31605Z" fill="#FF0000"/>
</svg>
