<svg width="12" height="21" viewBox="0 0 12 21" fill="none" xmlns="http://www.w3.org/2000/svg">
<path d="M5.72917 20.8333C4.13194 20.8333 2.77778 20.2778 1.66667 19.1667C0.555556 18.0556 0 16.7014 0 15.1042V4.16667C0 3.02083 0.407986 2.03993 1.22396 1.22396C2.03993 0.407986 3.02083 0 4.16667 0C5.3125 0 6.2934 0.407986 7.10938 1.22396C7.92535 2.03993 8.33333 3.02083 8.33333 4.16667V14.0625C8.33333 14.7917 8.0816 15.408 7.57812 15.9115C7.07465 16.4149 6.45833 16.6667 5.72917 16.6667C5 16.6667 4.38368 16.4149 3.88021 15.9115C3.37674 15.408 3.125 14.7917 3.125 14.0625V4.16667H4.6875V14.0625C4.6875 14.3576 4.78733 14.605 4.98698 14.8047C5.18663 15.0043 5.43403 15.1042 5.72917 15.1042C6.02431 15.1042 6.2717 15.0043 6.47135 14.8047C6.67101 14.605 6.77083 14.3576 6.77083 14.0625V4.16667C6.77083 3.4375 6.5191 2.82118 6.01562 2.31771C5.51215 1.81424 4.89583 1.5625 4.16667 1.5625C3.4375 1.5625 2.82118 1.81424 2.31771 2.31771C1.81424 2.82118 1.5625 3.4375 1.5625 4.16667V15.1042C1.5625 16.25 1.97049 17.2309 2.78646 18.0469C3.60243 18.8628 4.58333 19.2708 5.72917 19.2708C6.875 19.2708 7.8559 18.8628 8.67187 18.0469C9.48785 17.2309 9.89583 16.25 9.89583 15.1042V4.16667H11.4583V15.1042C11.4583 16.7014 10.9028 18.0556 9.79167 19.1667C8.68056 20.2778 7.32639 20.8333 5.72917 20.8333Z" fill="#737373"/>
</svg>
