<svg width="26" height="26" viewBox="0 0 26 26" fill="none" xmlns="http://www.w3.org/2000/svg">
<path d="M12.9009 16.6639C15.2768 16.6639 17.2012 14.7395 17.2012 12.3636V6.45069C17.2012 4.07477 15.2768 2.15039 12.9009 2.15039C10.525 2.15039 8.60059 4.07477 8.60059 6.45069V12.3636C8.60059 14.7395 10.525 16.6639 12.9009 16.6639Z" stroke="#737373" stroke-width="1.61261" stroke-linecap="round" stroke-linejoin="round"/>
<path d="M4.67676 10.3745V12.2021C4.67676 16.739 8.36427 20.4265 12.9011 20.4265C17.4379 20.4265 21.1254 16.739 21.1254 12.2021V10.3745" stroke="#737373" stroke-width="1.61261" stroke-linecap="round" stroke-linejoin="round"/>
<path d="M11.4062 6.91257C12.3738 6.55779 13.4274 6.55779 14.395 6.91257" stroke="#737373" stroke-width="1.61261" stroke-linecap="round" stroke-linejoin="round"/>
<path d="M12.041 9.19198C12.6108 9.04147 13.2021 9.04147 13.7719 9.19198" stroke="#737373" stroke-width="1.61261" stroke-linecap="round" stroke-linejoin="round"/>
<path d="M12.9014 20.4263V23.6515" stroke="#737373" stroke-width="1.61261" stroke-linecap="round" stroke-linejoin="round"/>
</svg>
