<svg width="24" height="24" viewBox="0 0 24 24" fill="none" xmlns="http://www.w3.org/2000/svg">
<path d="M12 21C13.78 21 15.5201 20.4722 17.0001 19.4832C18.4802 18.4943 19.6337 17.0887 20.3149 15.4442C20.9961 13.7996 21.1743 11.99 20.8271 10.2442C20.4798 8.49836 19.6226 6.89472 18.364 5.63604C17.1053 4.37737 15.5016 3.5202 13.7558 3.17294C12.01 2.82567 10.2004 3.0039 8.55585 3.68509C6.91131 4.36628 5.50571 5.51983 4.51677 6.99987C3.52784 8.47991 3 10.22 3 12C3 13.44 3.338 14.8 3.94 16.007C4.393 16.918 3.763 18.147 3.523 19.044C3.46983 19.2424 3.46982 19.4513 3.52297 19.6497C3.57613 19.8481 3.68057 20.029 3.8258 20.1742C3.97103 20.3194 4.15194 20.4239 4.35033 20.477C4.54872 20.5302 4.75761 20.5302 4.956 20.477C5.853 20.237 7.082 19.607 7.993 20.061C9.23821 20.6793 10.6097 21.0007 12 21Z" stroke="black" stroke-width="1.5" stroke-linecap="round" stroke-linejoin="round"/>
</svg>
