<svg width="16" height="7" viewBox="0 0 16 7" fill="none" xmlns="http://www.w3.org/2000/svg">
<path d="M9.37226 0.907815L3.44226 6.73192C3.34323 6.82933 3.20988 6.88392 3.07097 6.88392C2.93206 6.88392 2.79872 6.82933 2.69968 6.73192L0.158257 4.23616C0.108673 4.1874 0.0691782 4.12936 0.0420277 4.06533C0.0148772 4.00131 0.000602504 3.93257 1.86648e-05 3.86303C-0.000565174 3.79349 0.0125532 3.72452 0.0386249 3.66005C0.0646966 3.59558 0.103211 3.53688 0.151969 3.4873C0.200727 3.43771 0.258774 3.39822 0.322796 3.37107C0.386817 3.34392 0.455559 3.32964 0.525097 3.32906C0.594636 3.32848 0.663608 3.3416 0.728076 3.36767C0.792545 3.39374 0.851246 3.43225 0.90083 3.48101L3.07097 5.6121L8.63035 0.152005C8.73057 0.0535336 8.86581 -0.00108973 9.00631 0.000151438C9.07588 0.000766005 9.14465 0.015077 9.20869 0.0422677C9.27273 0.0694583 9.33078 0.108996 9.37954 0.158623C9.4283 0.20825 9.4668 0.266995 9.49286 0.331504C9.51891 0.396012 9.53201 0.465021 9.53139 0.53459C9.53078 0.604159 9.51647 0.672925 9.48927 0.736963C9.46208 0.801001 9.42255 0.859057 9.37292 0.907815H9.37226ZM15.7324 0.158623C15.6837 0.108959 15.6257 0.069388 15.5616 0.0421738C15.4976 0.0149595 15.4288 0.000635329 15.3592 2.06599e-05C15.2896 -0.000594009 15.2206 0.0125126 15.1561 0.0385912C15.0916 0.0646699 15.0329 0.103209 14.9833 0.152005L9.42388 5.6121L8.17765 4.38772C8.07743 4.28933 7.94222 4.2348 7.80178 4.2361C7.66135 4.2374 7.52718 4.29444 7.42879 4.39467C7.33041 4.49489 7.27587 4.6301 7.27717 4.77054C7.27848 4.91098 7.33552 5.04515 7.43574 5.14353L9.05259 6.73192C9.15162 6.82933 9.28497 6.88392 9.42388 6.88392C9.56279 6.88392 9.69614 6.82933 9.79517 6.73192L15.7252 0.907815C15.7749 0.859122 15.8145 0.801108 15.8418 0.737091C15.869 0.673074 15.8834 0.604309 15.8841 0.534728C15.8848 0.465147 15.8717 0.396116 15.8457 0.331581C15.8197 0.267046 15.7812 0.208273 15.7324 0.158623Z" fill="#3497F9"/>
</svg>
