<svg width="26" height="26" viewBox="0 0 26 26" fill="none" xmlns="http://www.w3.org/2000/svg">
<path d="M19.4264 9.1488L10.2238 4.54747C4.04212 1.45126 1.50494 3.98844 4.60116 10.1701L5.53647 12.0407C5.80524 12.589 5.80524 13.2233 5.53647 13.7716L4.60116 15.6315C1.50494 21.8132 4.03137 24.3504 10.2238 21.2541L19.4264 16.6528C23.5547 14.5887 23.5547 11.2129 19.4264 9.1488ZM15.9539 13.7071H10.1485C9.70776 13.7071 9.34224 13.3416 9.34224 12.9008C9.34224 12.46 9.70776 12.0945 10.1485 12.0945H15.9539C16.3947 12.0945 16.7603 12.46 16.7603 12.9008C16.7603 13.3416 16.3947 13.7071 15.9539 13.7071Z" fill="black"/>
</svg>
