<svg width="19" height="19" viewBox="0 0 19 19" fill="none" xmlns="http://www.w3.org/2000/svg">
<path d="M14.5039 0C16.7469 0 18.5654 1.81857 18.5654 4.06152V14.5039C18.5654 16.7469 16.7469 18.5654 14.5039 18.5654H4.06152C1.81857 18.5654 0 16.7469 0 14.5039V4.06152C0 1.81857 1.81857 0 4.06152 0H14.5039ZM4.06055 1.16113C2.45866 1.16139 1.16016 2.45958 1.16016 4.06152V14.5049C1.16016 14.6031 1.16526 14.7002 1.1748 14.7959L5.61816 10.3545C6.07131 9.90139 6.80566 9.90136 7.25879 10.3545L8.67773 11.7725L12.7354 7.71387C13.1885 7.26076 13.9238 7.26083 14.377 7.71387L17.4053 10.7432V4.06152C17.4053 2.45941 16.106 1.16113 14.5039 1.16113H4.06055ZM6.96191 3.48145C8.24358 3.48145 9.28316 4.52011 9.2832 5.80176C9.2832 7.08344 8.2436 8.12207 6.96191 8.12207C5.68035 8.12193 4.6416 7.08336 4.6416 5.80176C4.64164 4.52019 5.68037 3.48159 6.96191 3.48145Z" fill="black"/>
</svg>
