<svg width="18" height="12" viewBox="0 0 18 12" fill="none" xmlns="http://www.w3.org/2000/svg">
<path d="M16.75 6.5C17.1642 6.5 17.5 6.16421 17.5 5.75C17.5 5.33579 17.1642 5 16.75 5V5.75V6.5ZM0.75 5C0.335787 5 4.76837e-07 5.33579 4.76837e-07 5.75C4.76837e-07 6.16421 0.335787 6.5 0.75 6.5V5.75V5ZM4.22204 11.2827C4.51624 11.5743 4.99111 11.5722 5.28269 11.278C5.57427 10.9838 5.57216 10.5089 5.27796 10.2173L4.75 10.75L4.22204 11.2827ZM2.98703 9.00269L3.51499 8.47H3.51499L2.98703 9.00269ZM2.98703 2.49731L2.45907 1.96462H2.45907L2.98703 2.49731ZM5.27796 1.28269C5.57216 0.991107 5.57428 0.516238 5.28269 0.222041C4.99111 -0.0721558 4.51624 -0.0742745 4.22204 0.217309L4.75 0.75L5.27796 1.28269ZM0.76989 6.06333L0.0259089 6.15816L0.025909 6.15816L0.76989 6.06333ZM0.76989 5.43667L0.0259091 5.34184L0.025909 5.34184L0.76989 5.43667ZM16.75 5.75V5H0.75V5.75V6.5H16.75V5.75ZM4.75 10.75L5.27796 10.2173L3.51499 8.47L2.98703 9.00269L2.45907 9.53538L4.22204 11.2827L4.75 10.75ZM2.98703 2.49731L3.51499 3.03L5.27796 1.28269L4.75 0.75L4.22204 0.217309L2.45907 1.96462L2.98703 2.49731ZM2.98703 9.00269L3.51499 8.47C2.7995 7.76086 2.30869 7.27282 1.97659 6.85929C1.654 6.4576 1.54332 6.19958 1.51387 5.9685L0.76989 6.06333L0.025909 6.15816C0.104695 6.77628 0.399627 7.29122 0.807056 7.79854C1.20498 8.29403 1.76863 8.85108 2.45907 9.53538L2.98703 9.00269ZM2.98703 2.49731L2.45907 1.96462C1.76863 2.64892 1.20498 3.20597 0.807056 3.70146C0.399628 4.20878 0.104695 4.72372 0.0259091 5.34184L0.76989 5.43667L1.51387 5.5315C1.54332 5.30042 1.654 5.0424 1.97659 4.64071C2.30869 4.22718 2.7995 3.73914 3.51499 3.03L2.98703 2.49731ZM0.76989 6.06333L1.51387 5.9685C1.49538 5.82341 1.49538 5.67659 1.51387 5.5315L0.76989 5.43667L0.025909 5.34184C-0.0086363 5.61286 -0.0086363 5.88714 0.0259089 6.15816L0.76989 6.06333Z" fill="#72777A"/>
</svg>
