<svg width="19" height="19" viewBox="0 0 19 19" fill="none" xmlns="http://www.w3.org/2000/svg">
<path d="M9.16667 0C7.96288 0 6.77089 0.237103 5.65873 0.697771C4.54658 1.15844 3.53606 1.83365 2.68485 2.68485C0.965771 4.40394 0 6.73552 0 9.16667C0 11.5978 0.965771 13.9294 2.68485 15.6485C3.53606 16.4997 4.54658 17.1749 5.65873 17.6356C6.77089 18.0962 7.96288 18.3333 9.16667 18.3333C11.5978 18.3333 13.9294 17.3676 15.6485 15.6485C17.3676 13.9294 18.3333 11.5978 18.3333 9.16667C18.3333 7.96288 18.0962 6.77089 17.6356 5.65873C17.1749 4.54658 16.4997 3.53606 15.6485 2.68485C14.7973 1.83365 13.7867 1.15844 12.6746 0.697771C11.5624 0.237103 10.3705 0 9.16667 0ZM13.0167 13.0167L8.25 10.0833V4.58333H9.625V9.35L13.75 11.825L13.0167 13.0167Z" fill="#6C7072"/>
</svg>
